<?xml version="1.0" encoding="UTF-8"?>
<svg id="OBJECTS" xmlns="http://www.w3.org/2000/svg" viewBox="0 0 800 800">
  <defs>
    <style>
      .cls-1 {
        fill: #4a3622;
      }

      .cls-2 {
        fill: #c48056;
      }

      .cls-3 {
        font-size: 59.54px;
      }

      .cls-3, .cls-4, .cls-5 {
        fill: #f2f3cd;
      }

      .cls-3, .cls-5 {
        font-family: KomikaAxis, YCCXKW+KomikaAxis;
      }

      .cls-6 {
        fill: #a38037;
      }

      .cls-7 {
        fill: #320063;
      }

      .cls-8 {
        fill: #8c00ff;
      }

      .cls-9 {
        fill: #da896f;
      }

      .cls-10 {
        fill: #5a4029;
      }

      .cls-11 {
        fill: #e5ae81;
      }

      .cls-12 {
        fill: #7e474a;
      }

      .cls-5 {
        font-size: 40.49px;
      }

      .cls-13 {
        fill: #965c52;
      }

      .cls-14 {
        fill: #7e612e;
      }
    </style>
  </defs>
  <g>
    <path class="cls-7" d="M408.64,688.87s126.53-26.79,260.49,5.95c0,0-136.95,23.82-260.49-5.95Z"/>
    <path class="cls-7" d="M137.73,678.45s104.11-26.79,214.35,5.95c0,0-112.69,23.82-214.35-5.95Z"/>
    <g>
      <path class="cls-11" d="M548.81,414.56s-11.41,2.48-11.91,7.94c0,5.46,9.92,20.34,16.37,23.32,3.47,1.49,8.44-10.42,7.94-11.91-.5-1.49-5.46,3.47-5.46,3.47l.5-6.95-3.97,1.98s2.98-14.39-3.47-17.86Z"/>
      <path class="cls-11" d="M481.16,206.15s11.91,3.97,13.89-3.31c1.98-7.28,7.28-17.86,5.29-19.19-1.98-1.32-8.6,10.59-8.6,10.59l.66-9.92s3.97-13.23,0-19.19c-3.97-5.95-2.65,9.26-5.29,15.22-2.65,5.95-7.28,14.56-9.92,16.54-2.65,1.98,3.97,9.26,3.97,9.26Z"/>
      <g>
        <g>
          <path class="cls-12" d="M505.81,180.11s-13.35,7.13-13.92,16.64c-.57,9.51,6.71,34.91,6.71,34.91,0,0,21.53-38.06,7.21-51.55Z"/>
          <path class="cls-11" d="M568.25,257.87c-15.87,27.09-45.27,30.03-58.56,23.94-13.29-6.09-25.36-25.17-19.28-38.46s6.87-23.96,7.8-41.82c.93-17.86,18.2-26.66,18.2-26.66,0,0,31.78-15.71,58.31,9.67,26.52,25.38-6.46,73.33-6.46,73.33Z"/>
          <path class="cls-9" d="M569.04,247.2s17.41-15.99,18.29-1.4c.89,14.59-33.22,29.87-18.29,1.4Z"/>
          <path class="cls-9" d="M564.42,207.47s1.09,24.25-.93,35.09c-2.02,10.84-10.23,33.36-42.46,38.57-11.62-2.17-25.18-11.11-25.18-11.11,0,0,6.35,13.21,22.76,15.47,16.41,2.26,37.94-5.75,49.44-24.44,8.74-16.8,16.22-48.27,16.22-48.27l-19.85-5.3Z"/>
          <path class="cls-12" d="M543.28,191.91s-23.65,17.23-33.75,6.93c-10.1-10.3-29-37.87-9.05-54.59,19.95-16.72,75.65,6.9,90.5,43.33-3.41,5.38-8.27,5.67-8.27,5.67,0,0,9.37,7.76,9.02,16.11-1.3,6.97-13.25,32.39-13.25,32.39,0,0-7.84,3.35-14.65,14.1l-4.21-3.19,14.42-32.17-30.74-28.57Z"/>
          <path class="cls-13" d="M520.32,143.14s-20.43-2.21-22.4,12.65c1.9,15.58,71.9,27.03,72.62,23.16.72-3.87-30.27-22.48-27.03-22.67,3.24-.2,28.76,13.38,36.32,24.41-1.31-5.85-16.77-30.38-59.52-37.55Z"/>
          <path class="cls-13" d="M577.45,198.88s10.31-.48,8.94,10.08c-1.84,9.88-6.6,9.59-9.76,7.2-3.16-2.39-22.16-19.76-14.14-17.66,8.02,2.1,14.96.39,14.96.39Z"/>
        </g>
        <path class="cls-12" d="M527.21,220.53s15.58,1.73,22.11,5.81c.08-3.44-9.72-9.55-13.26-10.26-3.53-.71-8.85,4.45-8.85,4.45Z"/>
        <path class="cls-12" d="M512.85,216.49s-11.61-.52-16.87,1.71c.34-2.53,8.22-5.88,10.89-5.99,2.67-.11,5.97,4.28,5.97,4.28Z"/>
        <path class="cls-12" d="M535.07,231.59c-.4,2.13-1.78,3.67-3.08,3.42-1.3-.24-2.04-2.17-1.64-4.3.4-2.13,1.78-3.67,3.08-3.42,1.3.24,2.04,2.17,1.64,4.3Z"/>
        <path class="cls-12" d="M507.16,226.39c-.4,2.13-1.78,3.67-3.08,3.42-1.3-.24-2.04-2.17-1.64-4.3.4-2.13,1.78-3.67,3.08-3.42,1.3.24,2.04,2.17,1.64,4.3Z"/>
        <path class="cls-9" d="M510.62,239.23l-18.7-7.92s.22,17.26,13.77,15.86c4.46-.15,4.93-7.94,4.93-7.94Z"/>
      </g>
      <path class="cls-8" d="M470.74,443.67s28.12,207.41,28.12,233.22c-.99,0,4.96.99,4.96.99,0,0-3.97,5.95-14.89,9.92-7.94,3.97,23.82.99,27.79-1.98-.99-2.98-6.95-9.92-6.95-9.92,1.98-1.98-1.4-188.47-1.4-188.47,0,0,44.07,136.87,51.02,195.42h-.99l6.95,3.97-12.9,9.92s21.34,0,22.33-4.96c-.99-4.96-1.98-8.93-1.98-8.93,0,0-29.61-218.33-31.92-237.19-12.24-9.92-70.13-1.98-70.13-1.98Z"/>
      <path class="cls-4" d="M533.59,291.83s28.28,15.88,31.26,18.36c2.98,2.48,7.77,7.11,7.77,7.11l-16.54,19.85s-29.11,66.82-15.22,108.5c0,0-32.42,14.56-70.13-1.98-1.52-9.97-9.26-13.89,0-119.75,1.32-8.6-2.65-23.82-2.65-23.82l49.62-5.95,15.88-2.32Z"/>
      <path class="cls-9" d="M515.73,281.41s1.98,9.92-3.47,17.37c.99.5,7.44,4.47,7.44,4.47l14.39-6.95-2.48-14.89h-15.88Z"/>
      <path class="cls-6" d="M507.79,296.79s-4.63,9.92-4.63,14.56c1.32,0,13.23-5.29,13.23-5.29l11.25,12.57s9.92-9.92,9.26-20.51c1.98,5.29-2.65,21.83-7.94,25.14-5.29-1.32-12.57-13.23-12.57-13.23l-18.52,7.28s2.65-12.57,9.92-20.51Z"/>
      <polygon class="cls-6" points="509.77 311.18 511.26 321.6 521.18 316.64 516.39 306.05 509.77 311.18"/>
      <path class="cls-6" d="M516.45,316.65s-16.75,72.91-17.93,107.04l-12.5,12.41-8.69-17.85s24.35-80.88,34.3-104.56c2.87,2.57,4.82,2.95,4.82,2.95Z"/>
      <path class="cls-14" d="M499.18,413.68c1.96-21.18,7.43-50.36,11.7-71.17l-8.47-3.5c-7.52,22.21-16.35,50.66-21.28,66.73,5.96,2.58,12.48,5.43,18.05,7.94Z"/>
      <path class="cls-7" d="M469.08,439.04s37.71,13.23,70.79.99c1.16,5.87,1.65,10.92,1.65,10.92,0,0-37.38,10.92-70.13-1.98-.66,0-2.32-9.92-2.32-9.92Z"/>
      <path class="cls-8" d="M478.51,453.1l-2.48-12.41,6.45,1.98,1.49,13.89s-4.47-2.98-5.46-3.47Z"/>
      <path class="cls-8" d="M525.4,454.58l2.98-11.41-6.95.99-1.49,13.89s4.47-2.98,5.46-3.47Z"/>
      <path class="cls-4" d="M477.52,298.78s-32.75-4.96-44.66-52.6c0,0,37.71-33.74,52.6-35.73,1.98-4.96,0-16.87-9.92-15.88,0,0-46.64,13.89-75.42,49.62,0,0,23.82,68.48,75.42,88.32,8.93-6.95,5.62-33.74,5.62-33.74"/>
      <path class="cls-4" d="M572.3,316.64s37.22,38.7,45.15,68.48c0,0-30.76,34.73-64.51,41.68,0,0-6.95-7.94-1.98-15.88,2.98-3.97,25.8-14.89,32.75-28.78,1.98-5.95-23.82-41.68-36.72-45.65-12.9-3.97,25.31-19.85,25.31-19.85Z"/>
      <path class="cls-2" d="M502,257.42s15.88.66,23.49,4.63c0,0,.17,1.49.79,1.98.25-.5.62-3.35,1.36-4.59-.5,0-1.49,1.98-1.49,1.98,0,0-10.3-5.33-23.45-4.96l-.37-.25s-.74-1.36-.99-1.24c0,1.49-.5,3.97-.62,4.47.37-.62,1.28-2.03,1.28-2.03Z"/>
    </g>
    <rect class="cls-10" x="235.97" y="175.32" width="17.86" height="501.64"/>
    <g>
      <rect class="cls-1" x="235.97" y="254.71" width="17.86" height="21.31"/>
      <g>
        <polygon class="cls-7" points="342.79 234.6 323.79 211.05 167.5 211.05 167.5 267.61 323.79 267.61 346.52 239.23 346.52 234.6 342.79 234.6"/>
        <polygon class="cls-8" points="323.79 262.98 167.5 262.98 167.5 206.41 323.79 206.41 346.52 234.6 323.79 262.98"/>
      </g>
    </g>
    <g>
      <rect class="cls-1" x="235.97" y="454.19" width="17.86" height="21.31"/>
      <g>
        <polygon class="cls-7" points="342.79 434.07 323.79 410.52 167.5 410.52 167.5 467.08 323.79 467.08 346.52 438.71 346.52 434.07 342.79 434.07"/>
        <polygon class="cls-8" points="323.79 462.45 167.5 462.45 167.5 405.89 323.79 405.89 346.52 434.07 323.79 462.45"/>
      </g>
    </g>
    <g>
      <rect class="cls-1" x="235.88" y="351.97" width="17.86" height="21.31" transform="translate(489.61 725.25) rotate(180)"/>
      <g>
        <polygon class="cls-7" points="146.92 331.86 165.91 308.3 322.21 308.3 322.21 364.87 165.91 364.87 143.18 336.49 143.18 331.86 146.92 331.86"/>
        <polygon class="cls-8" points="165.91 360.24 322.21 360.24 322.21 303.67 165.91 303.67 143.18 331.86 165.91 360.24"/>
      </g>
    </g>
    <text class="cls-3" transform="translate(599.92 300.95)"><tspan x="0" y="0">?</tspan></text>
    <text class="cls-5" transform="translate(445.55 187.27) rotate(-26.68)"><tspan x="0" y="0">?</tspan></text>
  </g>
  <path class="cls-4" d="M575.01,203.77s-4.14,28.17-11.35,18.16,11.35-18.16,11.35-18.16Z"/>
  <path class="cls-4" d="M602.79,143.64c-8.04-10.15-20.04-16.72-31.79-21.62-14.22-5.94-29.06-10.51-44.01-14.18-.16-.04-.31-.08-.47-.11,3.38-5.33,9.3-8.64,15.28-10.27,7.61-2.07,15.99-1.59,23.72-.54,7.73,1.05,15.3,3.26,22.46,6.35.59.25,1.1-.61.5-.86-13.14-5.67-28.2-8.71-42.5-6.79-8.04,1.08-16.21,5.16-20.43,11.88-6.84-1.65-13.75-3.1-20.79-3.5-3.41-.19-6.82,0-10.2.53-2.95.45-6.44,1.19-8.85,3.08-6.12,4.79-2.79,12.51,1.11,17.58,4.68,6.1,11.05,11.25,17.23,15.76,13.23,9.64,28.79,16.03,44.93,18.66.63.1.9-.86.27-.96-13.48-2.19-26.35-7.01-38.02-14.11-5.91-3.59-11.41-7.83-16.49-12.52-4.92-4.55-10.99-10.17-11.48-17.3-.63-9.23,13.41-9.83,19.67-9.78,7.46.06,14.86,1.72,22.1,3.46-1.43,2.57-2.3,5.51-2.39,8.78-.33,12.46,11.73,21.75,21.39,27.28,11.99,6.87,25.64,10.69,39.41,11.51,5.75.34,12.49.73,17.88-1.65,1.77-.78,3.14-2.13,3.78-3.96.86-2.45-.88-4.91-2.31-6.72ZM597.21,154.57c-3.6.73-7.54.58-11.19.51-7.39-.15-14.73-1.35-21.85-3.31-13.38-3.7-28.16-10.73-36.35-22.38-4.11-5.85-5.5-13.11-2.37-19.71.17-.36.35-.71.55-1.05.25.06.5.12.74.18,15.17,3.67,30.26,8.36,44.64,14.45,6.2,2.62,12.21,5.71,17.8,9.47,2.83,1.91,5.5,4.05,8,6.38,2.71,2.52,6.84,6.09,7.12,9.96.25,3.53-4.44,4.97-7.08,5.51Z"/>
  <polygon class="cls-4" points="593.19 99.19 596.52 91.04 597.63 100.67 605.04 102.15 598 104 601.33 111.78 594.67 105.48 587.26 111.41 592.07 102.52 585.04 99.19 593.19 99.19"/>
  <polygon class="cls-4" points="485.19 122.19 488.52 114.04 489.63 123.67 497.04 125.15 490 127 493.33 134.78 486.67 128.48 479.26 134.41 484.07 125.52 477.04 122.19 485.19 122.19"/>
  <polygon class="cls-4" points="604.93 176.11 606.59 172.04 607.15 176.85 610.85 177.59 607.33 178.52 609 182.41 605.67 179.26 601.96 182.22 604.37 177.78 600.85 176.11 604.93 176.11"/>
</svg>